P2
#swift_test_image

8 8
65535
 0 0 0 0 0 0 0 0
 0 0 0 0 0 0 0 0
 0 0 0 18 18 0 0 0
 0 0 0 18 18 0 0 0
 0 0 0 0 0 0 0 0
 0 0 0 19 19 0 0 0
 0 0 0 19 19 0 0 0
 0 0 0 0 0 0 0 0
