P2
#swift_test_image

8 8
65535
 0 0 0 0 0 0 0 0
 0 0 0 0 0 0 0 0
 0 0 0 0 0 0 0 0
 0 0 0 0 20 20 0 0
 0 0 0 0 20 20 0 0
 0 0 0 0 0 0 0 0
 0 0 0 0 21 21 0 0
 0 0 0 0 21 21 0 0
