P2
#swift_test_image

8 8
65535
 10 10 0 0 0 0 0 0
 10 10 0 0 0 0 0 0
 0 0 0 0 0 0 0 0
 11 11 0 0 0 0 0 0
 11 11 0 0 0 0 0 0
 0 0 0 0 0 0 0 0
 0 0 0 0 0 0 0 0
 0 0 0 0 0 0 0 0
