P2
#swift_test_image

8 8
65535
 0 0 0 0 0 0 0 0
 0 0 0 0 0 0 0 0
 0 0 0 26 26 0 0 0
 0 0 0 26 26 0 0 0
 0 0 0 0 0 0 0 0
 0 0 0 27 27 0 0 0
 0 0 0 27 27 0 0 0
 0 0 0 0 0 0 0 0
