P2
#swift_test_image

8 8
65535
 0 0 0 0 0 0 0 0
 0 1500 1500 0 0 1400 1400 0
 0 1500 1500 0 0 1400 1400 0
 0 0 0 0 0 0 0 0
 0 0 0 0 0 0 0 0
 0 0 0 0 0 1300 1300 0
 0 0 0 0 0 1300 1300 0
 0 0 0 0 0 0 0 0
