P2
#swift_test_image

8 8
65535
 0 0 0 0 0 0 0 0
 0 0 0 0 0 79 79 0
 0 0 0 0 0 79 79 0
 0 0 0 0 0 0 0 0
 0 0 0 0 0 80 80 0
 0 0 0 0 0 80 80 0
 0 0 0 0 0 0 0 0
 0 0 0 0 0 0 0 0
