P2
#swift_test_image

8 8
65535
 0 0 0 0 0 0 0 0
 0 0 89 89 0 0 0 0
 0 0 89 89 0 0 0 0
 0 0 0 0 0 0 0 0
 0 0 90 90 0 0 0 0
 0 0 90 90 0 0 0 0
 0 0 0 0 0 0 0 0
 0 0 0 0 0 0 0 0
