P2
#swift_test_image

8 8
65535
 0 0 0 0 0 0 0 0
 0 0 0 0 0 0 0 0
 0 0 0 0 0 0 0 0
 0 0 0 59 59 0 0 0
 0 0 0 59 59 0 0 0
 0 0 0 0 0 0 0 0
 0 0 0 60 60 0 0 0
 0 0 0 60 60 0 0 0
