P2
#swift_test_image

8 8
65535
 0 0 0 0 0 0 0 0
 0 0 0 0 0 0 0 0
 0 0 0 0 0 0 0 0
 0 0 0 0 49 49 0 0
 0 0 0 0 49 49 0 0
 0 0 0 0 0 0 0 0
 0 0 0 0 50 50 0 0
 0 0 0 0 50 50 0 0
