P2
#swift_test_image

8 8
65535
 0 0 0 0 0 0 0 0
 0 0 0 0 0 0 0 0
 0 0 0 0 0 0 39 39
 0 0 0 0 0 0 39 39
 0 0 0 0 0 0 0 0
 0 0 0 0 0 0 40 40
 0 0 0 0 0 0 40 40
 0 0 0 0 0 0 0 0
