P2
#swift_test_image

8 8
65535
 0 0 0 0 0 0 0 0
 0 0 0 0 0 0 0 0
 0 0 0 0 0 0 0 0
 0 0 0 0 16 16 0 0
 0 0 0 0 16 16 0 0
 0 0 0 0 0 0 0 0
 0 0 0 0 17 17 0 0
 0 0 0 0 17 17 0 0
