P2
#swift_test_image

11 11
65535
 0 0 0 0 0 0 0 0 0 0 0
 0 1000 1000 0 0 0 0 0 0 0 0
 0 1000 1000 0 0 0 0 0 0 0 0
 0 0 0 0 0 0 0 0 0 0 0
 0 0 0 0 0 0 0 0 0 0 0
 0 1000 1000 0 0 1000 1000 0 1000 1000 0
 0 1000 1000 0 0 1000 1000 0 1000 1000 0
 0 0 0 0 0 0 0 0 0 0 0
 0 1000 1000 1000 1000 1000 1000 1000 1000 1000 0
 0 1000 1000 1000 1000 1000 1000 1000 1000 1000 0
 0 0 0 0 0 0 0 0 0 0 0
