P2
#swift_test_image

11 11
65535
 0 0 0 0 0 0 0 0 0 0 0
 0 1100 1100 0 0 0 0 0 0 0 0
 0 1100 1100 0 0 0 0 0 0 0 0
 0 0 0 0 0 0 0 0 0 0 0
 0 0 0 0 0 0 0 0 0 0 0
 0 0 0 0 0 1200 1200 0 0 0 0
 0 0 0 0 0 1200 1200 0 0 0 0
 0 0 0 0 0 0 0 0 0 0 0
 0 0 0 0 0 0 0 0 0 0 0
 0 0 0 0 0 0 0 0 0 0 0
 0 0 0 0 0 0 0 0 0 0 0
