P2
#swift_test_image

8 8
65535
 0 0 0 0 0 0 0 0
 0 0 0 0 0 0 0 0
 0 0 0 22 22 0 0 0
 0 0 0 22 22 0 0 0
 0 0 0 0 0 0 0 0
 0 0 0 23 23 0 0 0
 0 0 0 23 23 0 0 0
 0 0 0 0 0 0 0 0
