P2
#swift_test_image

8 8
65535
 0 0 0 0 0 0 0 0
 0 0 0 0 0 0 0 0
 0 0 0 0 0 0 0 0
 0 0 0 0 24 24 0 0
 0 0 0 0 24 24 0 0
 0 0 0 0 0 0 0 0
 0 0 0 0 25 25 0 0
 0 0 0 0 25 25 0 0
