P2
#swift_test_image

5 5
65535
 0 0 0 0 0
 0 0 0 0 0
 0 0 65535 0 0
 0 0 0 0 0
 0 0 0 0 0
