P2
#swift_test_image

8 8
65535
 0 0 0 0 0 0 0 0
 0 0 0 0 0 0 0 0
 0 0 0 30 30 0 0 0
 0 0 0 30 30 0 0 0
 0 0 0 0 0 0 0 0
 0 0 0 31 31 0 0 0
 0 0 0 31 31 0 0 0
 0 0 0 0 0 0 0 0
